<?xml version="1.0" encoding="utf-8"?>
<!-- Generator: Adobe Illustrator 24.1.1, SVG Export Plug-In . SVG Version: 6.00 Build 0)  -->
<svg version="1.1" id="Capa_1" xmlns="http://www.w3.org/2000/svg" xmlns:xlink="http://www.w3.org/1999/xlink" x="0px" y="0px"
	 viewBox="0 0 512 138" style="enable-background:new 0 0 512 138;" xml:space="preserve">
<style type="text/css">
	.st0{fill:#DB202C;}
</style>
<path class="st0" d="M340.7,0v100.2c12.4,0.6,24.7,1.3,37,2.1v21.2c-19.4-1.3-38.9-2.3-58.5-3V0H340.7z M512,0l-28.1,65.1l28.1,72.4
	l0,0c-8.2-1.2-16.4-2.3-24.6-3.3l-15.8-40.7l-15.9,36.9c-7.5-0.8-15.1-1.6-22.7-2.4l27.4-63.4L435.4,0h23.3l14,36.2L488.3,0H512z
	 M245.1,119.5l0-119.5h60.2v21.4h-38.6v27.8h29.2v21.2h-29.2v49L245.1,119.5z M90.9,127V0h59.9v21.4h-38.3v29
	c8.8-0.1,21.3-0.2,29.1-0.2v21.2c-9.8-0.1-20.8,0.1-29.1,0.2v32.2c12.7-1,25.5-1.9,38.3-2.6v21.2C130.7,123.7,110.7,125.2,90.9,127z
	 M48.6,77.9l0-77.8h21.6v129c-7.9,0.8-15.7,1.7-23.6,2.6l-25-71.7v74.8c-7.2,0.9-14.4,1.9-21.6,2.9V0h20.5L48.6,77.9z M395.4,124.8
	L395.4,124.8V0H417v126.6C409.8,126,402.6,125.4,395.4,124.8z M189.7,0c0.1,34.1,0.1,68.2,0.2,102.3c12.2-0.4,24.4-0.7,36.7-1.1
	c0,6.1,0.1,12.1,0.1,18.2c-19.8,0.7-39.5,1.4-59.3,2c0.3-40.5,0.5-81,0.8-121.5H189.7z"/>
</svg>
